<svg width="16" height="19" viewBox="0 0 16 19" xmlns="http://www.w3.org/2000/svg"><path fill-rule="evenodd" clip-rule="evenodd" d="M0.5 18H15.5L13.625 5H2.375L0.5 18ZM1.65458 17H14.3454L12.7589 6H3.24112L1.65458 17Z"/><path fill-rule="evenodd" clip-rule="evenodd" d="M2.26677 4.875H13.7333L15.6444 18.125H0.355713L2.26677 4.875ZM2.4833 5.125L0.644358 17.875H15.3557L13.5168 5.125H2.4833ZM3.13289 5.875H12.8672L14.4898 17.125H1.51029L3.13289 5.875ZM3.34942 6.125L1.79894 16.875H14.2011L12.6507 6.125H3.34942Z"/><path fill-rule="evenodd" clip-rule="evenodd" d="M11 5H9.75V2.99995C9.75 2.03347 8.9665 1.24998 8 1.24998C7.0335 1.24998 6.25 2.03347 6.25 2.99995V4.99992L5 5V2.99995C5 1.34312 6.34315 0 8 0C9.65685 0 11 1.34312 11 2.99995V5Z"/></svg>
