<svg viewBox="0 0 18 20" xmlns="http://www.w3.org/2000/svg"><path fill-rule="evenodd" clip-rule="evenodd" d="M8.47579 7.13921L11.8449 10.1639C12.0517 10.3495 12.0517 10.6505 11.8449 10.8361L8.47579 13.8608C8.26904 14.0464 7.93384 14.0464 7.72709 13.8608C7.52035 13.6752 7.52035 13.3742 7.72709 13.1886L10.1925 10.9753L1 10.9753L1 10.0247L10.1925 10.0247L7.72709 7.81137C7.52035 7.62576 7.52035 7.32482 7.72709 7.13921C7.93384 6.9536 8.26904 6.9536 8.47579 7.13921Z"/><path fill-rule="evenodd" clip-rule="evenodd" d="M7.64359 7.04619C7.89784 6.81794 8.30505 6.81794 8.5593 7.04619L11.9284 10.0709C12.1905 10.3062 12.1905 10.6938 11.9284 10.9291L8.5593 13.9538C8.30505 14.1821 7.89784 14.1821 7.64359 13.9538C7.38151 13.7185 7.38151 13.3309 7.64359 13.0956L9.86613 11.1003L1 11.1003C0.930964 11.1003 0.875 11.0443 0.875 10.9753L0.875 10.0247C0.875 9.95568 0.930964 9.89971 1 9.89971L9.86613 9.89971L7.64359 7.90438C7.38151 7.6691 7.38151 7.28147 7.64359 7.04619ZM8.39229 7.23222C8.23304 7.08926 7.96984 7.08926 7.8106 7.23222C7.65918 7.36817 7.65918 7.58241 7.8106 7.71835L10.276 9.9317C10.3145 9.96629 10.3277 10.0211 10.3092 10.0694C10.2907 10.1178 10.2443 10.1497 10.1925 10.1497L1.125 10.1497V10.8503L10.1925 10.8503C10.2443 10.8503 10.2907 10.8822 10.3092 10.9306C10.3277 10.9789 10.3145 11.0337 10.276 11.0683L7.8106 13.2816C7.65918 13.4176 7.65918 13.6318 7.8106 13.7678C7.96984 13.9107 8.23304 13.9107 8.39229 13.7678L11.7614 10.7431C11.9129 10.6071 11.9129 10.3929 11.7614 10.2569L8.39229 7.23222Z"/><path fill-rule="evenodd" clip-rule="evenodd" d="M6.09091 2.125H15.9091V17.875H6.09091V15.625H5V19H17V1H5V4.375H6.09091V2.125Z"/><path fill-rule="evenodd" clip-rule="evenodd" d="M4.86719 1C4.86719 0.92665 4.92665 0.867188 5 0.867188H17C17.0734 0.867188 17.1328 0.92665 17.1328 1V19C17.1328 19.0734 17.0734 19.1328 17 19.1328H5C4.92665 19.1328 4.86719 19.0734 4.86719 19V15.625C4.86719 15.5517 4.92665 15.4922 5 15.4922H6.09091C6.16426 15.4922 6.22372 15.5517 6.22372 15.625V17.7422H15.7763V2.25781H6.22372V4.375C6.22372 4.44835 6.16426 4.50781 6.09091 4.50781H5C4.92665 4.50781 4.86719 4.44835 4.86719 4.375V1ZM5.13281 1.13281V4.24219H5.9581V2.125C5.9581 2.05165 6.01756 1.99219 6.09091 1.99219H15.9091C15.9824 1.99219 16.0419 2.05165 16.0419 2.125V17.875C16.0419 17.9484 15.9824 18.0078 15.9091 18.0078H6.09091C6.01756 18.0078 5.9581 17.9484 5.9581 17.875V15.7578H5.13281V18.8672H16.8672V1.13281H5.13281Z"/></svg>
