<?xml version="1.0" encoding="UTF-8"?>
<svg id="Layer_1" data-name="Layer 1" xmlns="http://www.w3.org/2000/svg" viewBox="0 0 1651.01 227.76"><path class="cls-2" d="M1329.73,130.52c-25.33,0-50.66.07-75.98-.07-3.89-.02-5.19.73-4.52,4.98,3.88,24.66,14.09,44.97,38.94,54.13,18.35,6.76,36.95,6.08,54.9-2.26,9.05-4.21,15.78-11.06,20.28-19.92,1.4-2.75,2.96-3.83,6.08-3.77,10.49.2,21,.31,31.49-.03,4.92-.16,4.52,1.6,3.08,5.03-11.77,28.06-32.17,46.62-61.49,54.63-26.02,7.1-51.93,5.65-76.73-5.14-27.46-11.94-45.74-32.93-54.96-61.21-9.27-28.44-8.98-57.29,2.03-85.14,13.78-34.88,40.45-54.87,77.09-61.4,22.92-4.08,45.57-2.6,66.95,7.38,32.26,15.05,48.59,41.59,53.51,76.02,1.49,10.44,1.14,20.93.76,31.42-.14,3.91-1.38,5.55-5.93,5.5-25.16-.3-50.32-.14-75.48-.14ZM1309.01,98.41c18.49,0,36.98-.06,55.47.06,3.1.02,4.45-.48,3.95-4.08-5.11-37.16-29.88-57.4-68.32-51.43-27.02,4.19-44.68,23.3-49.98,51.36-.67,3.53.06,4.18,3.4,4.15,18.49-.13,36.98-.06,55.47-.06Z"/><path class="cls-2" d="M1568.66,122.31c-25.32,0-50.65,0-75.97,0-2.18,0-4.89-.84-4.28,3.23,2.92,19.72,9.68,37.33,26.68,49.43,19.2,13.67,53.18,14.2,72.5,1.22,6.95-4.67,12.22-10.77,15.91-18.2,1.05-2.12,2.31-2.77,4.57-2.74,10.99.1,21.99.19,32.98-.03,4.12-.08,3.84,1.37,2.63,4.34-11.93,29.33-33.13,48.52-63.82,55.9-32.99,7.93-64.62,4.06-92.85-16.13-24.37-17.43-37.47-41.91-41.51-71.22-3.2-23.29-1.55-46.29,8.14-68.02,14.36-32.22,39.62-51.24,73.95-57.64,28.87-5.38,56.73-2.38,81.9,14.43,23.36,15.6,35.31,38.22,39.85,65.29,1.99,11.88,1.99,23.84,1.12,35.85-.25,3.47-1.46,4.39-4.83,4.37-25.66-.13-51.31-.07-76.97-.07ZM1549.17,90.25c18.32,0,36.64.04,54.95-.07,1.5,0,4.5,1.51,3.97-2.35-2.22-16.02-6.91-30.96-19.9-41.72-16.59-13.74-35.76-14.9-55.69-9.97-22.85,5.66-38.69,25.66-43.16,51.13-.58,3.29,1.3,3,3.36,2.99,18.82-.02,37.64-.01,56.45,0Z"/><path class="cls-1" d="M130.81,51.94c5.44-8.24,10.31-15.05,16.59-20.71,20.04-18.05,43.86-24.32,70.22-22.43,15.79,1.13,30.33,5.7,42.49,16.42,13.18,11.62,20.01,26.42,21.34,43.68.75,9.78.58,19.64.59,29.46.06,39.82-.06,79.63.13,119.45.02,4.49-1.22,5.57-5.56,5.43-10.49-.33-21-.32-31.49,0-4.41.13-5.81-.89-5.79-5.61.2-43.31.1-86.63.15-129.95,0-4.69-.39-9.34-1.39-13.89-3.79-17.27-14.22-26.51-34.17-28.9-34.6-4.16-61.67,16.09-68.76,45.24-1.74,7.17-2.3,14.47-2.31,21.79-.06,34.99-.16,69.97.12,104.96.04,5.44-1.64,6.54-6.63,6.36-10.32-.37-20.67-.37-30.99,0-4.55.17-5.45-1.27-5.44-5.56.14-66.47.09-132.95.09-199.42,0-.67.06-1.34-.01-2-.31-2.75.72-3.81,3.64-3.77,11.16.14,22.33.18,33.49-.02,3.37-.06,3.78,1.38,3.75,4.18-.12,11.25-.05,22.5-.05,35.27Z"/><path class="cls-1" d="M386.78,52c5.59-8.63,10.77-15.62,17.34-21.48,27.3-24.34,73.82-29.66,103.53-11.45,18.69,11.46,28.1,28.81,29.82,50.35,1.32,16.45.47,32.97.52,49.46.1,32.82-.09,65.64.16,98.46.04,4.97-1.41,6.07-6.12,5.91-10.49-.37-21-.32-31.49-.01-4.11.12-5.25-.92-5.24-5.14.17-43.48.09-86.96.13-130.45,0-4.69-.4-9.34-1.4-13.89-3.8-17.27-14.23-26.49-34.2-28.87-34.55-4.13-61.63,16.06-68.74,45.28-1.74,7.17-2.29,14.47-2.3,21.8-.05,35.32-.09,70.64.07,105.96.02,4.02-.81,5.45-5.12,5.32-11.16-.32-22.33-.2-33.49-.05-3.08.04-4.38-.57-4.37-4.03.09-67.47.09-134.94.01-202.42,0-3.22.85-4.33,4.22-4.26,10.83.21,21.66.19,32.49.01,3.25-.05,4.3.87,4.24,4.21-.2,11.24-.08,22.49-.08,35.3Z"/><path class="cls-2" d="M679.02,157.94c5.5,0,11,.07,16.49-.03,1.94-.04,3.12.45,3.56,2.5,5.02,23.24,21.6,32.28,43.24,34.5,11.45,1.17,22.98,1.04,34.13-2.66,15.48-5.14,22.95-17.62,19.07-31.87-1.91-7.03-6.52-11.84-12.83-15.15-11.82-6.2-24.98-7.85-37.71-10.91-14.88-3.58-29.77-6.91-43.57-13.95-22.76-11.6-34.43-29.72-32.83-55.53,1.53-24.76,15.39-40.95,37.76-49.18,29.17-10.73,58.9-10.61,87.67,1.75,21.5,9.23,34.48,25.96,38.29,49.4.56,3.45-.12,4.63-3.88,4.54-10.49-.26-20.99-.1-31.49-.08-2.01,0-3.79.26-4.46-2.6-3.49-15.02-13.99-22.94-28.2-26.4-13.86-3.37-27.81-3.28-41.22,2.09-14.38,5.76-19.72,20.69-12.19,33.04,3.26,5.35,8.42,8.45,14.01,10.78,15.13,6.31,31.29,8.95,47.04,13.03,13.77,3.56,27.08,8,38.82,16.33,23.02,16.34,31.77,46.02,20.83,71.82-6.82,16.1-19.78,25.93-35.85,31.05-33,10.51-66.01,10.4-97.77-4.51-21.85-10.25-34.2-28.37-38.36-52.12-.73-4.18-.23-6.48,4.95-5.95,4.78.49,9.65.1,14.48.11Z"/><path class="cls-1" d="M867,119.18c0-32.98.08-65.96-.1-98.94-.02-4.15,1.04-5.24,5.21-5.23,45.48.16,90.96.15,136.45,0,4.09-.01,5.45.9,5.26,5.15-.36,8.15-.32,16.33,0,24.48.15,3.88-1.15,4.64-4.79,4.63-30.82-.14-61.64,0-92.46-.18-4.08-.02-5.3.86-5.23,5.11.28,16.32.25,32.65.01,48.97-.06,4.03.77,5.29,5.08,5.26,28.49-.22,56.98,0,85.47-.22,4.42-.03,5.73,1.03,5.49,5.49-.4,7.64-.36,15.33-.02,22.98.2,4.39-.83,5.89-5.61,5.85-28.32-.25-56.64-.01-84.96-.24-4.42-.03-5.5,1.05-5.46,5.46.24,23.32.01,46.64.21,69.95.03,4.14-.62,5.76-5.31,5.58-10.98-.42-21.99-.09-32.98-.15-6.98-.03-6.23,1.02-6.24-6.5-.03-32.48-.01-64.96-.01-97.44Z"/><path class="cls-2" d="M1096.97,49.99c6.36-11.12,13.39-21.06,23.57-28.45,15.31-11.1,32.5-14.58,51.08-12.52,3.17.35,4.19,1.56,4.14,4.72-.17,10.99-.15,21.98-.01,32.98.04,2.88-.73,3.6-3.67,3.23-10.82-1.35-21.65-.92-32.26,1.64-22.34,5.39-35.72,20.41-39.39,43.71-.94,5.94-1.29,11.91-1.29,17.91,0,34.81-.07,69.62.09,104.43.02,4.16-.64,5.8-5.35,5.62-11.15-.41-22.32-.22-33.48-.07-3.06.04-4.35-.54-4.34-4.03.1-67.45.09-134.9.02-202.36,0-3.15.7-4.39,4.12-4.32,10.82.21,21.66.23,32.48,0,3.72-.08,4.4,1.35,4.35,4.64-.17,10.96-.06,21.92-.06,32.88Z"/><path class="cls-1" d="M.09,118.73c0-32.81.07-65.61-.09-98.42-.02-4.04.82-5.43,5.13-5.31,11.65.32,23.32.23,34.98.03,3.34-.06,4.52.64,4.51,4.29-.12,66.44-.12,132.89.01,199.33,0,3.92-1.2,4.62-4.78,4.56-11.66-.22-23.32-.28-34.98.02-4.14.11-4.88-1.35-4.86-5.08.13-33.14.07-66.28.07-99.42Z"/><path class="cls-1" d="M630.63,118.97c0,33.13-.08,66.25.1,99.38.02,4.03-1.17,4.95-5,4.87-11.82-.25-23.64-.18-35.46-.03-2.95.04-4.03-.6-4.02-3.81.09-66.92.09-133.83.01-200.75,0-2.93.98-3.6,3.72-3.57,12.15.13,24.31.21,36.46-.04,3.71-.07,4.27,1.29,4.26,4.57-.11,33.13-.07,66.25-.07,99.38Z"/>
</svg>