<svg width="849" height="841" viewBox="0 0 849 841" xmlns="http://www.w3.org/2000/svg" fill="rgba(217, 217, 217, 0.3)">
<path d="M416.276 97V25H429.276V97H416.276Z"/>
<path d="M457.785 96.7994L472.854 26.3939L488.607 29.7193L509.848 98.1827L506.04 98.2986L519.329 36.2048L531.658 38.8073L516.589 109.213L500.836 105.887L479.594 37.424L483.403 37.3082L470.113 99.4019L457.785 96.7994Z"/>
<path d="M524.756 110.689L554.204 44.9865L568.929 51.4985L575.425 122.82L571.673 122.145L597.645 64.199L609.169 69.2954L579.72 134.998L564.996 128.486L558.499 57.1641L562.251 57.8394L536.279 115.785L524.756 110.689Z"/>
<path d="M609.135 153.776L651.64 95.6619L662.182 103.27L619.676 161.384L609.135 153.776Z"/>
<path d="M664.616 203.06C658.527 196.342 655.209 189.605 654.663 182.849C654.212 176.097 656.505 169.842 661.543 164.084L669.938 173.346C667.062 176.724 665.823 180.47 666.223 184.584C666.673 188.654 668.711 192.689 672.338 196.69C675.338 199.999 678.218 201.985 680.977 202.647C683.831 203.314 686.351 202.67 688.538 200.715C690.476 198.981 691.549 197.038 691.756 194.885C691.964 192.731 691.276 190.037 689.693 186.802L683.869 174.57C680.928 168.347 679.622 162.985 679.952 158.486C680.328 154.036 682.354 150.167 686.031 146.878C689.112 144.122 692.512 142.513 696.23 142.049C699.949 141.585 703.727 142.23 707.567 143.984C711.45 145.787 715.139 148.615 718.631 152.468C724.004 158.395 726.814 164.423 727.061 170.552C727.402 176.687 725.312 182.223 720.791 187.161L712.396 177.9C714.885 174.69 715.952 171.499 715.597 168.329C715.292 165.113 713.662 161.876 710.707 158.616C708.11 155.751 705.479 153.99 702.814 153.333C700.149 152.675 697.823 153.236 695.835 155.013C694.195 156.48 693.251 158.218 693.004 160.228C692.801 162.288 693.531 165.079 695.194 168.6L701.077 181.047C704.069 187.226 705.33 192.538 704.86 196.983C704.39 201.428 702.242 205.361 698.416 208.783C693.348 213.317 687.858 215.052 681.946 213.989C676.079 212.976 670.302 209.333 664.616 203.06Z"/>
<path d="M693.473 235.9L755.931 200.08L762.463 211.319L700.006 247.139L693.473 235.9ZM721.658 226.882L730.593 221.758L750.945 256.773L742.01 261.898L721.658 226.882ZM750.111 210.565L759.046 205.44L780.604 242.531L771.669 247.655L750.111 210.565Z"/>
<path d="M725.035 291.797L793.555 269.682L803.006 298.575C804.602 303.454 805.165 307.966 804.697 312.11C804.229 316.254 802.815 319.757 800.455 322.621C798.116 325.547 794.947 327.656 790.95 328.946C787.017 330.215 783.238 330.349 779.614 329.347C776.01 328.409 772.793 326.4 769.962 323.321C767.131 320.242 764.917 316.262 763.322 311.383L757.042 292.184L766.463 289.144L772.619 307.962C773.924 311.954 775.839 314.699 778.363 316.196C780.907 317.756 783.798 318.015 787.033 316.97C790.269 315.926 792.401 314.082 793.43 311.438C794.523 308.774 794.406 305.414 793.079 301.359L787.794 285.201L729.077 304.152L725.035 291.797ZM737.844 330.955L762.885 289.142L767.424 303.019L743.44 348.063L737.844 330.955Z"/>
<path d="M745.77 360.521L817.381 353.044L818.749 365.972L747.138 373.449L745.77 360.521ZM746.423 366.686L756.667 365.617L761.465 410.964L751.221 412.033L746.423 366.686ZM778.25 363.363L788.295 362.315L792.725 404.181L782.679 405.23L778.25 363.363ZM807.789 360.279L818.033 359.21L822.716 403.463L812.471 404.532L807.789 360.279Z"/>
<path d="M751.209 428.193L822.82 435.67L821.452 448.598L749.841 441.121L751.209 428.193ZM750.557 434.359L760.801 435.428L756.003 480.775L745.758 479.706L750.557 434.359ZM782.384 437.682L792.429 438.73L787.999 480.597L777.954 479.548L782.384 437.682ZM811.923 440.766L822.167 441.835L817.485 486.088L807.241 485.019L811.923 440.766Z"/>
<path d="M760.276 527.865L779.88 534.193L773.476 553.772L753.872 547.445L760.276 527.865Z"/>
<path d="M710.535 574.857L772.993 610.676L766.46 621.916L704.003 586.096L710.535 574.857Z"/>
<path d="M689.778 610.632L743.444 658.632L732.631 670.561L662.399 654.834L664.213 651.493L711.543 693.825L703.081 703.161L649.415 655.161L660.228 643.233L730.46 658.959L728.646 662.301L681.316 619.968L689.778 610.632Z"/>
<path d="M644.018 661.16L686.524 719.274L673.469 728.696L608.051 698.71L610.52 695.819L648.007 747.072L637.79 754.446L595.285 696.332L608.34 686.91L673.758 716.896L671.289 719.787L633.801 668.534L644.018 661.16Z"/>
<path d="M564.159 711.998L593.608 777.7L581.718 782.958L552.27 717.256L564.159 711.998Z"/>
<path d="M493.535 734.841C502.406 732.968 509.915 733.494 516.064 736.42C522.161 739.426 526.461 744.548 528.965 751.787L516.734 754.369C515.227 750.19 512.584 747.239 508.806 745.516C505.043 743.858 500.519 743.586 495.236 744.702C490.865 745.625 487.706 747.109 485.758 749.156C483.758 751.281 483.066 753.778 483.679 756.647C484.223 759.189 485.38 761.091 487.15 762.353C488.92 763.615 491.605 764.376 495.207 764.638L508.742 765.766C515.618 766.358 520.931 767.928 524.68 770.475C528.364 773.036 530.722 776.728 531.755 781.552C532.62 785.594 532.329 789.335 530.884 792.774C529.438 796.214 526.998 799.148 523.563 801.576C520.064 804.019 515.77 805.777 510.682 806.851C502.855 808.504 496.214 807.896 490.759 805.028C485.254 802.238 481.478 797.653 479.43 791.271L491.661 788.689C493.215 792.449 495.46 794.973 498.394 796.261C501.343 797.615 504.969 797.837 509.274 796.928C513.058 796.129 515.898 794.746 517.795 792.778C519.692 790.811 520.361 788.523 519.803 785.915C519.343 783.764 518.3 782.077 516.675 780.853C514.984 779.642 512.194 778.869 508.304 778.532L494.551 777.347C487.689 776.82 482.442 775.237 478.809 772.597C475.176 769.957 472.823 766.128 471.749 761.108C470.326 754.458 471.546 748.852 475.41 744.289C479.209 739.739 485.251 736.59 493.535 734.841Z"/>
<path d="M450.464 743.11V815.11H437.464V743.11H450.464ZM444.264 772.01V782.31H403.764V772.01H444.264ZM444.264 804.81V815.11H401.364V804.81H444.264Z"/>
<path d="M386.069 742.264L371.003 812.67L341.259 806.39C336.236 805.33 332.047 803.56 328.692 801.08C325.337 798.6 323.008 795.621 321.707 792.144C320.341 788.653 320.097 784.854 320.976 780.747C321.841 776.705 323.612 773.366 326.29 770.729C328.902 768.078 332.249 766.297 336.329 765.388C340.41 764.478 344.962 764.553 349.984 765.613L369.749 769.786L367.677 779.467L348.304 775.377C344.195 774.509 340.862 774.793 338.304 776.229C335.682 777.652 334.015 780.025 333.304 783.35C332.592 786.675 333.125 789.444 334.901 791.659C336.663 793.939 339.631 795.519 343.805 796.401L360.439 799.913L373.349 739.579L386.069 742.264ZM345.757 733.753L369.465 776.37L355.18 773.354L328.146 730.034L345.757 733.753Z"/>
<path d="M315.881 725.805L286.433 791.508L274.544 786.249L303.992 720.547L315.881 725.805ZM310.211 723.298L305.998 732.697L264.295 714.253L268.508 704.854L310.211 723.298ZM297.123 752.499L292.992 761.715L254.489 744.687L258.62 735.47L297.123 752.499ZM284.975 779.601L280.762 789L240.065 771.001L244.278 761.602L284.975 779.601Z"/>
<path d="M254.183 696.801L211.677 754.916L201.136 747.308L243.641 689.194L254.183 696.801ZM249.155 693.173L243.075 701.487L206.099 674.801L212.179 666.487L249.155 693.173ZM230.264 719.002L224.301 727.154L190.163 702.516L196.126 694.364L230.264 719.002ZM212.73 742.974L206.65 751.287L170.566 725.245L176.646 716.932L212.73 742.974Z"/>
<path d="M167.102 655.723L151.747 669.456L137.912 654.193L153.267 640.46L167.102 655.723Z"/>
<path d="M146.389 588.8L83.9314 624.62L77.3989 613.381L139.856 577.561L146.389 588.8Z"/>
<path d="M125.355 553.107L56.8357 575.222L51.8304 559.92L100.492 507.331L102.499 510.571L42.0684 530.076L38.1512 518.1L106.671 495.985L111.676 511.287L63.0144 563.876L61.0076 560.635L121.438 541.131L125.355 553.107Z"/>
<path d="M103.987 488.437L32.3765 495.914L30.6825 479.903L89.2508 438.498L90.5352 442.084L27.3785 448.677L26.0527 436.147L97.6635 428.671L99.3576 444.681L40.7892 486.087L39.5048 482.501L102.662 475.907L103.987 488.437Z"/>
<path d="M99.4849 394.217L27.8742 386.741L29.242 373.813L100.853 381.29L99.4849 394.217Z"/>
<path d="M114.931 321.767C112.112 330.385 107.897 336.625 102.284 340.487C96.6293 344.266 90.0404 345.432 82.5176 343.985L86.4037 332.104C90.7775 332.886 94.6563 332.071 98.04 329.66C101.36 327.23 103.86 323.448 105.539 318.315C106.927 314.07 107.223 310.593 106.426 307.884C105.586 305.091 103.77 303.244 100.978 302.343C98.5042 301.544 96.2777 301.596 94.2991 302.499C92.3205 303.401 90.3164 305.346 88.287 308.334L80.534 319.492C76.5788 325.151 72.5598 328.967 68.4769 330.942C64.4148 332.853 60.0363 333.051 55.3414 331.536C51.4079 330.266 48.3135 328.147 46.0583 325.177C43.8031 322.208 42.4835 318.629 42.0995 314.442C41.7363 310.192 42.363 305.596 43.9796 300.653C46.4667 293.05 50.3176 287.603 55.5323 284.312C60.7044 280.938 66.5662 279.957 73.1179 281.372L69.2317 293.252C65.1971 292.72 61.8874 293.404 59.3027 295.301C56.6545 297.179 54.6465 300.208 53.2785 304.39C52.0764 308.065 51.8527 311.216 52.6072 313.841C53.3617 316.466 55.0079 318.188 57.5456 319.007C59.6393 319.683 61.623 319.623 63.4967 318.827C65.3912 317.967 67.458 315.937 69.6972 312.737L77.6075 301.42C81.4993 295.74 85.4976 291.987 89.6025 290.16C93.7073 288.332 98.2024 288.207 103.088 289.783C109.559 291.872 113.803 295.729 115.821 301.354C117.86 306.916 117.563 313.72 114.931 321.767Z"/>
<path d="M129.327 280.671L66.8691 244.851L73.4017 233.612L135.859 269.431L129.327 280.671ZM107.372 260.933L98.4375 255.809L118.789 220.793L127.724 225.918L107.372 260.933ZM78.9195 244.615L69.9846 239.491L91.5422 202.4L100.477 207.525L78.9195 244.615Z"/>
<path d="M162.44 225.733L108.774 177.734L129.19 155.21C132.638 151.406 136.284 148.675 140.128 147.015C143.972 145.355 147.733 144.828 151.412 145.435C155.135 145.993 158.562 147.672 161.693 150.472C164.773 153.227 166.788 156.415 167.735 160.035C168.727 163.606 168.593 167.377 167.333 171.348C166.073 175.319 163.719 179.206 160.272 183.009L146.706 197.976L139.327 191.376L152.624 176.706C155.445 173.594 156.873 170.579 156.91 167.66C156.991 164.691 155.765 162.074 153.23 159.807C150.696 157.541 148.02 156.622 145.2 157.052C142.331 157.438 139.464 159.211 136.599 162.373L125.182 174.968L171.171 216.101L162.44 225.733ZM190.11 195.207L141.122 194.458L150.927 183.64L202.198 181.871L190.11 195.207Z"/>
<path d="M212.053 173.718L169.548 115.603L180.089 107.996L222.595 166.11L212.053 173.718ZM217.081 170.09L211 161.776L247.976 135.09L254.057 143.404L217.081 170.09ZM198.189 144.261L192.227 136.109L226.365 111.471L232.327 119.623L198.189 144.261ZM180.656 120.289L174.575 111.975L210.659 85.9331L216.74 94.2467L180.656 120.289Z"/>
<path d="M268.292 135.354L238.843 69.6522L250.733 64.3941L280.181 130.096L268.292 135.354ZM273.962 132.847L269.749 123.448L311.453 105.004L315.666 114.403L273.962 132.847ZM260.874 103.646L256.743 94.4292L295.246 77.4008L299.376 86.6174L260.874 103.646ZM248.726 76.5435L244.514 67.1445L285.211 49.1454L289.424 58.5445L248.726 76.5435Z"/>
<path d="M346.038 83.2623L341.728 63.1184L361.884 58.8627L366.194 79.0067L346.038 83.2623Z"/>
</svg>
