<svg fill="#fff" viewBox="0 0 3357 140" xmlns="http://www.w3.org/2000/svg"><path d="M834.399 78.3159C818.504 78.3159 802.61 78.3602 786.722 78.2717C784.281 78.259 783.465 78.7332 783.885 81.4202C786.32 97.0114 792.727 109.852 808.32 115.644C819.834 119.918 831.506 119.488 842.769 114.215C848.448 111.553 852.671 107.222 855.495 101.62C856.373 99.8818 857.352 99.199 859.31 99.2369C865.893 99.3633 872.488 99.4329 879.07 99.2179C882.157 99.1168 881.906 100.23 881.003 102.398C873.617 120.139 860.816 131.873 842.418 136.938C826.091 141.427 809.832 140.51 794.27 133.688C777.039 126.139 765.569 112.868 759.783 94.9882C753.966 77.0072 754.148 58.7669 761.057 41.1589C769.704 19.1062 786.439 6.46767 809.431 2.33911C823.813 -0.240446 838.025 0.695275 851.441 7.00507C871.684 16.5204 881.931 33.3001 885.019 55.0683C885.954 61.6689 885.734 68.3012 885.495 74.9334C885.408 77.4055 884.629 78.4424 881.774 78.4108C865.987 78.2211 850.199 78.3223 834.411 78.3223L834.399 78.3159ZM821.397 58.0146C832.999 58.0146 844.602 57.9766 856.204 58.0525C858.149 58.0651 858.996 57.749 858.683 55.4729C855.476 31.9787 839.933 19.1821 815.812 22.9566C798.857 25.6057 787.776 37.6879 784.45 55.4287C784.03 57.6605 784.488 58.0715 786.583 58.0525C798.186 57.9703 809.788 58.0146 821.391 58.0146H821.397Z"/><path d="M1963.4 78.3159C1947.5 78.3159 1931.61 78.3602 1915.72 78.2717C1913.28 78.259 1912.46 78.7332 1912.89 81.4202C1915.32 97.0114 1921.73 109.852 1937.32 115.644C1948.83 119.918 1960.51 119.488 1971.77 114.215C1977.45 111.553 1981.67 107.222 1984.49 101.62C1985.37 99.8818 1986.35 99.199 1988.31 99.2369C1994.89 99.3633 2001.49 99.4329 2008.07 99.2179C2011.16 99.1168 2010.91 100.23 2010 102.398C2002.62 120.139 1989.82 131.873 1971.42 136.938C1955.09 141.427 1938.83 140.51 1923.27 133.688C1906.04 126.139 1894.57 112.868 1888.78 94.9882C1882.97 77.0072 1883.15 58.7669 1890.06 41.1589C1898.7 19.1062 1915.44 6.46767 1938.43 2.33911C1952.81 -0.240446 1967.03 0.695275 1980.44 7.00507C2000.68 16.5204 2010.93 33.3001 2014.02 55.0683C2014.95 61.6689 2014.73 68.3012 2014.5 74.9334C2014.41 77.4055 2013.63 78.4424 2010.77 78.4108C1994.99 78.2211 1979.2 78.3223 1963.41 78.3223L1963.4 78.3159ZM1950.4 58.0146C1962 58.0146 1973.6 57.9766 1985.2 58.0525C1987.15 58.0651 1988 57.749 1987.68 55.4729C1984.48 31.9787 1968.93 19.1821 1944.81 22.9566C1927.86 25.6057 1916.78 37.6879 1913.45 55.4287C1913.03 57.6605 1913.49 58.0715 1915.58 58.0525C1927.19 57.9703 1938.79 58.0146 1950.39 58.0146H1950.4Z"/><path d="M3092.4 78.3159C3076.5 78.3159 3060.61 78.3602 3044.72 78.2717C3042.28 78.259 3041.46 78.7332 3041.89 81.4202C3044.32 97.0114 3050.73 109.852 3066.32 115.644C3077.83 119.918 3089.51 119.488 3100.77 114.215C3106.45 111.553 3110.67 107.222 3113.49 101.62C3114.37 99.8818 3115.35 99.199 3117.31 99.2369C3123.89 99.3633 3130.49 99.4329 3137.07 99.2179C3140.16 99.1168 3139.91 100.23 3139 102.398C3131.62 120.139 3118.82 131.873 3100.42 136.938C3084.09 141.427 3067.83 140.51 3052.27 133.688C3035.04 126.139 3023.57 112.868 3017.78 94.9882C3011.97 77.0072 3012.15 58.7669 3019.06 41.1589C3027.7 19.1062 3044.44 6.46767 3067.43 2.33911C3081.81 -0.240446 3096.03 0.695275 3109.44 7.00507C3129.68 16.5204 3139.93 33.3001 3143.02 55.0683C3143.95 61.6689 3143.73 68.3012 3143.5 74.9334C3143.41 77.4055 3142.63 78.4424 3139.77 78.4108C3123.99 78.2211 3108.2 78.3223 3092.41 78.3223L3092.4 78.3159ZM3079.4 58.0146C3091 58.0146 3102.6 57.9766 3114.2 58.0525C3116.15 58.0651 3117 57.749 3116.68 55.4729C3113.48 31.9787 3097.93 19.1821 3073.81 22.9566C3056.86 25.6057 3045.78 37.6879 3042.45 55.4287C3042.03 57.6605 3042.49 58.0715 3044.58 58.0525C3056.19 57.9703 3067.79 58.0146 3079.39 58.0146H3079.4Z"/><path d="M984.326 78.3198C968.438 78.3198 952.543 78.3198 936.655 78.3198C935.287 78.3198 933.587 77.7887 933.969 80.362C935.802 92.8298 940.043 103.964 950.711 111.614C962.759 120.257 984.081 120.592 996.204 112.385C1000.57 109.433 1003.87 105.576 1006.19 100.878C1006.85 99.538 1007.64 99.127 1009.06 99.146C1015.95 99.2092 1022.85 99.2661 1029.75 99.127C1032.34 99.0764 1032.16 99.9932 1031.4 101.871C1023.91 120.415 1010.61 132.547 991.354 137.213C970.653 142.227 950.805 139.78 933.091 127.015C917.799 115.995 909.579 100.518 907.043 81.9868C905.036 67.2619 906.071 52.7202 912.151 38.9816C921.162 18.6107 937.013 6.58537 958.555 2.539C976.67 -0.862471 994.152 1.03426 1009.95 11.6623C1024.6 21.5253 1032.1 35.8267 1034.95 52.9415C1036.2 60.4526 1036.2 68.0142 1035.65 75.6075C1035.5 77.8014 1034.74 78.3831 1032.62 78.3704C1016.52 78.2882 1000.43 78.3261 984.326 78.3261V78.3198ZM972.096 58.0501C983.592 58.0501 995.087 58.0754 1006.58 58.0058C1007.52 58.0058 1009.4 58.9605 1009.07 56.52C1007.67 46.3915 1004.73 36.9457 996.581 30.1428C986.171 21.4558 974.141 20.7224 961.636 23.8393C947.297 27.4178 937.358 40.0627 934.553 56.166C934.189 58.2461 935.369 58.0627 936.661 58.0564C948.471 58.0437 960.28 58.0501 972.083 58.0564L972.096 58.0501Z"/><path d="M2113.33 78.3198C2097.44 78.3198 2081.54 78.3198 2065.65 78.3198C2064.29 78.3198 2062.59 77.7887 2062.97 80.362C2064.8 92.8298 2069.04 103.964 2079.71 111.614C2091.76 120.257 2113.08 120.592 2125.2 112.385C2129.57 109.433 2132.87 105.576 2135.19 100.878C2135.85 99.538 2136.64 99.127 2138.06 99.146C2144.95 99.2092 2151.85 99.2661 2158.75 99.127C2161.34 99.0764 2161.16 99.9932 2160.4 101.871C2152.91 120.415 2139.61 132.547 2120.35 137.213C2099.65 142.227 2079.8 139.78 2062.09 127.015C2046.8 115.995 2038.58 100.518 2036.04 81.9868C2034.04 67.2619 2035.07 52.7202 2041.15 38.9816C2050.16 18.6107 2066.01 6.58537 2087.55 2.539C2105.67 -0.862471 2123.15 1.03426 2138.95 11.6623C2153.6 21.5253 2161.1 35.8267 2163.95 52.9415C2165.2 60.4526 2165.2 68.0142 2164.65 75.6075C2164.5 77.8014 2163.74 78.3831 2161.62 78.3704C2145.52 78.2882 2129.43 78.3261 2113.33 78.3261V78.3198ZM2101.1 58.0501C2112.59 58.0501 2124.09 58.0754 2135.58 58.0058C2136.52 58.0058 2138.4 58.9605 2138.07 56.52C2136.67 46.3915 2133.73 36.9457 2125.58 30.1428C2115.17 21.4558 2103.14 20.7224 2090.64 23.8393C2076.3 27.4178 2066.36 40.0627 2063.55 56.166C2063.19 58.2461 2064.37 58.0627 2065.66 58.0564C2077.47 58.0437 2089.28 58.0501 2101.08 58.0564L2101.1 58.0501Z"/><path d="M3242.33 78.3198C3226.44 78.3198 3210.54 78.3198 3194.65 78.3198C3193.29 78.3198 3191.59 77.7887 3191.97 80.362C3193.8 92.8298 3198.04 103.964 3208.71 111.614C3220.76 120.257 3242.08 120.592 3254.2 112.385C3258.57 109.433 3261.87 105.576 3264.19 100.878C3264.85 99.538 3265.64 99.127 3267.06 99.146C3273.95 99.2092 3280.85 99.2661 3287.75 99.127C3290.34 99.0764 3290.16 99.9932 3289.4 101.871C3281.91 120.415 3268.61 132.547 3249.35 137.213C3228.65 142.227 3208.8 139.78 3191.09 127.015C3175.8 115.995 3167.58 100.518 3165.04 81.9868C3163.04 67.2619 3164.07 52.7202 3170.15 38.9816C3179.16 18.6107 3195.01 6.58537 3216.55 2.539C3234.67 -0.862471 3252.15 1.03426 3267.95 11.6623C3282.6 21.5253 3290.1 35.8267 3292.95 52.9415C3294.2 60.4526 3294.2 68.0142 3293.65 75.6075C3293.5 77.8014 3292.74 78.3831 3290.62 78.3704C3274.52 78.2882 3258.43 78.3261 3242.33 78.3261V78.3198ZM3230.1 58.0501C3241.59 58.0501 3253.09 58.0754 3264.58 58.0058C3265.52 58.0058 3267.4 58.9605 3267.07 56.52C3265.67 46.3915 3262.73 36.9457 3254.58 30.1428C3244.17 21.4558 3232.14 20.7224 3219.64 23.8393C3205.3 27.4178 3195.36 40.0627 3192.55 56.166C3192.19 58.2461 3193.37 58.0627 3194.66 58.0564C3206.47 58.0437 3218.28 58.0501 3230.08 58.0564L3230.1 58.0501Z"/>
<path d="M82.0825 29.4792C85.4961 24.2695 88.552 19.9639 92.4927 16.3854C105.068 4.97338 120.015 1.00921 136.555 2.20415C146.464 2.91859 155.587 5.80795 163.218 12.5856C171.488 19.9323 175.774 29.2895 176.608 40.202C177.079 46.3854 176.972 52.6193 176.979 58.828C177.016 84.0039 176.941 109.174 177.06 134.35C177.073 137.188 176.295 137.871 173.571 137.783C166.989 137.574 160.394 137.58 153.811 137.783C151.044 137.865 150.166 137.22 150.178 134.236C150.304 106.853 150.241 79.4644 150.272 52.0756C150.272 49.1104 150.028 46.1704 149.4 43.2937C147.022 32.3749 140.477 26.5329 127.959 25.0219C106.247 22.3917 89.2611 35.1947 84.8122 53.6246C83.7203 58.1578 83.3689 62.7732 83.3626 67.4012C83.325 89.5234 83.2622 111.639 83.4379 133.762C83.463 137.201 82.4088 137.896 79.2776 137.783C72.8019 137.549 66.3073 137.549 59.8316 137.783C56.9765 137.89 56.4117 136.98 56.418 134.267C56.5059 92.2421 56.4745 50.2105 56.4745 8.18519C56.4745 7.76158 56.5121 7.33798 56.4682 6.9207C56.2737 5.18202 56.92 4.51184 58.7523 4.53713C65.7551 4.62565 72.7643 4.65094 79.7671 4.52449C81.8818 4.48656 82.139 5.39699 82.1202 7.16727C82.0449 14.28 82.0888 21.3928 82.0888 29.4665L82.0825 29.4792Z"/><path d="M1211.08 29.4792C1214.5 24.2695 1217.55 19.9639 1221.49 16.3854C1234.07 4.97338 1249.01 1.00921 1265.56 2.20415C1275.46 2.91859 1284.59 5.80795 1292.22 12.5856C1300.49 19.9323 1304.77 29.2895 1305.61 40.202C1306.08 46.3854 1305.97 52.6193 1305.98 58.828C1306.02 84.0039 1305.94 109.174 1306.06 134.35C1306.07 137.188 1305.29 137.871 1302.57 137.783C1295.99 137.574 1289.39 137.58 1282.81 137.783C1280.04 137.865 1279.17 137.22 1279.18 134.236C1279.3 106.853 1279.24 79.4644 1279.27 52.0756C1279.27 49.1104 1279.03 46.1704 1278.4 43.2937C1276.02 32.3749 1269.48 26.5329 1256.96 25.0219C1235.25 22.3917 1218.26 35.1947 1213.81 53.6246C1212.72 58.1578 1212.37 62.7732 1212.36 67.4012C1212.32 89.5234 1212.26 111.639 1212.44 133.762C1212.46 137.201 1211.41 137.896 1208.28 137.783C1201.8 137.549 1195.31 137.549 1188.83 137.783C1185.98 137.89 1185.41 136.98 1185.42 134.267C1185.51 92.2421 1185.47 50.2105 1185.47 8.18519C1185.47 7.76158 1185.51 7.33798 1185.47 6.9207C1185.27 5.18202 1185.92 4.51184 1187.75 4.53713C1194.76 4.62565 1201.76 4.65094 1208.77 4.52449C1210.88 4.48656 1211.14 5.39699 1211.12 7.16727C1211.04 14.28 1211.09 21.3928 1211.09 29.4665L1211.08 29.4792Z"/><path d="M2340.08 29.4792C2343.5 24.2695 2346.55 19.9639 2350.49 16.3854C2363.07 4.97338 2378.01 1.00921 2394.56 2.20415C2404.46 2.91859 2413.59 5.80795 2421.22 12.5856C2429.49 19.9323 2433.77 29.2895 2434.61 40.202C2435.08 46.3854 2434.97 52.6193 2434.98 58.828C2435.02 84.0039 2434.94 109.174 2435.06 134.35C2435.07 137.188 2434.29 137.871 2431.57 137.783C2424.99 137.574 2418.39 137.58 2411.81 137.783C2409.04 137.865 2408.17 137.22 2408.18 134.236C2408.3 106.853 2408.24 79.4644 2408.27 52.0756C2408.27 49.1104 2408.03 46.1704 2407.4 43.2937C2405.02 32.3749 2398.48 26.5329 2385.96 25.0219C2364.25 22.3917 2347.26 35.1947 2342.81 53.6246C2341.72 58.1578 2341.37 62.7732 2341.36 67.4012C2341.32 89.5234 2341.26 111.639 2341.44 133.762C2341.46 137.201 2340.41 137.896 2337.28 137.783C2330.8 137.549 2324.31 137.549 2317.83 137.783C2314.98 137.89 2314.41 136.98 2314.42 134.267C2314.51 92.2421 2314.47 50.2105 2314.47 8.18519C2314.47 7.76158 2314.51 7.33798 2314.47 6.9207C2314.27 5.18202 2314.92 4.51184 2316.75 4.53713C2323.76 4.62565 2330.76 4.65094 2337.77 4.52449C2339.88 4.48656 2340.14 5.39699 2340.12 7.16727C2340.04 14.28 2340.09 21.3928 2340.09 29.4665L2340.08 29.4792Z"/><path d="M242.702 29.6775C246.21 24.2213 249.46 19.8019 253.583 16.0969C270.714 0.708097 299.905 -2.65544 318.547 8.85773C330.275 16.1032 336.18 27.0727 337.259 40.6912C338.088 51.0917 337.554 61.5363 337.586 71.962C337.648 92.7123 337.529 113.463 337.686 134.213C337.711 137.355 336.801 138.051 333.846 137.949C327.263 137.715 320.668 137.747 314.086 137.943C311.507 138.019 310.792 137.361 310.798 134.693C310.905 107.203 310.854 79.7134 310.879 52.2171C310.879 49.2518 310.628 46.3119 310.001 43.4352C307.616 32.5163 301.072 26.687 288.541 25.1823C266.861 22.5711 249.868 35.3361 245.407 53.8103C244.315 58.3435 243.97 62.9589 243.963 67.5932C243.932 89.9241 243.907 112.255 244.007 134.586C244.02 137.127 243.499 138.032 240.795 137.949C233.792 137.747 226.783 137.823 219.78 137.918C217.847 137.943 217.031 137.557 217.038 135.37C217.094 92.7123 217.094 50.0548 217.044 7.39092C217.044 5.35509 217.577 4.6533 219.692 4.69756C226.488 4.83033 233.283 4.81769 240.079 4.70388C242.119 4.67227 242.777 5.25393 242.74 7.36563C242.614 14.4721 242.69 21.5848 242.69 29.6839L242.702 29.6775Z"/><path d="M1371.7 29.6775C1375.21 24.2213 1378.46 19.8019 1382.58 16.0969C1399.71 0.708097 1428.9 -2.65544 1447.55 8.85773C1459.28 16.1032 1465.18 27.0727 1466.26 40.6912C1467.09 51.0917 1466.55 61.5363 1466.59 71.962C1466.65 92.7123 1466.53 113.463 1466.69 134.213C1466.71 137.355 1465.8 138.051 1462.85 137.949C1456.26 137.715 1449.67 137.747 1443.09 137.943C1440.51 138.019 1439.79 137.361 1439.8 134.693C1439.9 107.203 1439.85 79.7134 1439.88 52.2171C1439.88 49.2518 1439.63 46.3119 1439 43.4352C1436.62 32.5163 1430.07 26.687 1417.54 25.1823C1395.86 22.5711 1378.87 35.3361 1374.41 53.8103C1373.31 58.3435 1372.97 62.9589 1372.96 67.5932C1372.93 89.9241 1372.91 112.255 1373.01 134.586C1373.02 137.127 1372.5 138.032 1369.79 137.949C1362.79 137.747 1355.78 137.823 1348.78 137.918C1346.85 137.943 1346.03 137.557 1346.04 135.37C1346.09 92.7123 1346.09 50.0548 1346.04 7.39092C1346.04 5.35509 1346.58 4.6533 1348.69 4.69756C1355.49 4.83033 1362.28 4.81769 1369.08 4.70388C1371.12 4.67227 1371.78 5.25393 1371.74 7.36563C1371.61 14.4721 1371.69 21.5848 1371.69 29.6839L1371.7 29.6775Z"/><path d="M2500.7 29.6775C2504.21 24.2213 2507.46 19.8019 2511.58 16.0969C2528.71 0.708097 2557.9 -2.65544 2576.55 8.85773C2588.28 16.1032 2594.18 27.0727 2595.26 40.6912C2596.09 51.0917 2595.55 61.5363 2595.59 71.962C2595.65 92.7123 2595.53 113.463 2595.69 134.213C2595.71 137.355 2594.8 138.051 2591.85 137.949C2585.26 137.715 2578.67 137.747 2572.09 137.943C2569.51 138.019 2568.79 137.361 2568.8 134.693C2568.9 107.203 2568.85 79.7134 2568.88 52.2171C2568.88 49.2518 2568.63 46.3119 2568 43.4352C2565.62 32.5163 2559.07 26.687 2546.54 25.1823C2524.86 22.5711 2507.87 35.3361 2503.41 53.8103C2502.31 58.3435 2501.97 62.9589 2501.96 67.5932C2501.93 89.9241 2501.91 112.255 2502.01 134.586C2502.02 137.127 2501.5 138.032 2498.79 137.949C2491.79 137.747 2484.78 137.823 2477.78 137.918C2475.85 137.943 2475.03 137.557 2475.04 135.37C2475.09 92.7123 2475.09 50.0548 2475.04 7.39092C2475.04 5.35509 2475.58 4.6533 2477.69 4.69756C2484.49 4.83033 2491.28 4.81769 2498.08 4.70388C2500.12 4.67227 2500.78 5.25393 2500.74 7.36563C2500.61 14.4721 2500.69 21.5848 2500.69 29.6839L2500.7 29.6775Z"/><path d="M426.082 94.886C429.533 94.886 432.984 94.9302 436.429 94.867C437.646 94.8417 438.387 95.1515 438.663 96.4476C441.813 111.141 452.217 116.856 465.796 118.26C472.981 119 480.216 118.918 487.212 116.578C496.926 113.329 501.613 105.438 499.178 96.4286C497.98 91.984 495.087 88.9429 491.128 86.8501C483.711 82.9302 475.453 81.887 467.465 79.9524C458.128 77.6889 448.784 75.5835 440.125 71.1325C425.843 63.7985 418.52 52.3422 419.524 36.024C420.484 20.3696 429.181 10.1336 443.218 4.93022C461.522 -1.85377 480.178 -1.7779 498.231 6.03665C511.722 11.8723 519.867 22.4497 522.258 37.2695C522.609 39.4508 522.182 40.1968 519.823 40.1399C513.241 39.9755 506.652 40.0767 500.063 40.0893C498.802 40.0893 497.685 40.2537 497.265 38.4455C495.075 28.9492 488.486 23.9418 479.569 21.7542C470.872 19.6236 462.119 19.6805 453.704 23.0756C444.68 26.7174 441.33 36.1568 446.055 43.965C448.1 47.3475 451.338 49.3075 454.846 50.7806C464.34 54.7701 474.48 56.4392 484.363 59.0187C493.004 61.2695 501.356 64.0767 508.723 69.3433C523.168 79.6742 528.658 98.4392 521.793 114.751C517.514 124.93 509.381 131.145 499.298 134.382C478.59 141.027 457.877 140.958 437.947 131.531C424.237 125.05 416.487 113.594 413.877 98.5783C413.419 95.9355 413.732 94.4813 416.983 94.8164C419.982 95.1262 423.038 94.8796 426.069 94.886H426.082Z"/><path d="M1555.08 94.886C1558.53 94.886 1561.98 94.9302 1565.43 94.867C1566.65 94.8417 1567.39 95.1515 1567.66 96.4476C1570.81 111.141 1581.22 116.856 1594.8 118.26C1601.98 119 1609.22 118.918 1616.21 116.578C1625.93 113.329 1630.61 105.438 1628.18 96.4286C1626.98 91.984 1624.09 88.9429 1620.13 86.8501C1612.71 82.9302 1604.45 81.887 1596.46 79.9524C1587.13 77.6889 1577.78 75.5835 1569.12 71.1325C1554.84 63.7985 1547.52 52.3422 1548.52 36.024C1549.48 20.3696 1558.18 10.1336 1572.22 4.93022C1590.52 -1.85377 1609.18 -1.7779 1627.23 6.03665C1640.72 11.8723 1648.87 22.4497 1651.26 37.2695C1651.61 39.4508 1651.18 40.1968 1648.82 40.1399C1642.24 39.9755 1635.65 40.0767 1629.06 40.0893C1627.8 40.0893 1626.68 40.2537 1626.26 38.4455C1624.07 28.9492 1617.49 23.9418 1608.57 21.7542C1599.87 19.6236 1591.12 19.6805 1582.7 23.0756C1573.68 26.7174 1570.33 36.1568 1575.05 43.965C1577.1 47.3475 1580.34 49.3075 1583.85 50.7806C1593.34 54.7701 1603.48 56.4392 1613.36 59.0187C1622 61.2695 1630.36 64.0767 1637.72 69.3433C1652.17 79.6742 1657.66 98.4392 1650.79 114.751C1646.51 124.93 1638.38 131.145 1628.3 134.382C1607.59 141.027 1586.88 140.958 1566.95 131.531C1553.24 125.05 1545.49 113.594 1542.88 98.5783C1542.42 95.9355 1542.73 94.4813 1545.98 94.8164C1548.98 95.1262 1552.04 94.8796 1555.07 94.886H1555.08Z"/><path d="M2684.08 94.886C2687.53 94.886 2690.98 94.9302 2694.43 94.867C2695.65 94.8417 2696.39 95.1515 2696.66 96.4476C2699.81 111.141 2710.22 116.856 2723.8 118.26C2730.98 119 2738.22 118.918 2745.21 116.578C2754.93 113.329 2759.61 105.438 2757.18 96.4286C2755.98 91.984 2753.09 88.9429 2749.13 86.8501C2741.71 82.9302 2733.45 81.887 2725.46 79.9524C2716.13 77.6889 2706.78 75.5835 2698.12 71.1325C2683.84 63.7985 2676.52 52.3422 2677.52 36.024C2678.48 20.3696 2687.18 10.1336 2701.22 4.93022C2719.52 -1.85377 2738.18 -1.7779 2756.23 6.03665C2769.72 11.8723 2777.87 22.4497 2780.26 37.2695C2780.61 39.4508 2780.18 40.1968 2777.82 40.1399C2771.24 39.9755 2764.65 40.0767 2758.06 40.0893C2756.8 40.0893 2755.68 40.2537 2755.26 38.4455C2753.07 28.9492 2746.49 23.9418 2737.57 21.7542C2728.87 19.6236 2720.12 19.6805 2711.7 23.0756C2702.68 26.7174 2699.33 36.1568 2704.05 43.965C2706.1 47.3475 2709.34 49.3075 2712.85 50.7806C2722.34 54.7701 2732.48 56.4392 2742.36 59.0187C2751 61.2695 2759.36 64.0767 2766.72 69.3433C2781.17 79.6742 2786.66 98.4392 2779.79 114.751C2775.51 124.93 2767.38 131.145 2757.3 134.382C2736.59 141.027 2715.88 140.958 2695.95 131.531C2682.24 125.05 2674.49 113.594 2671.88 98.5783C2671.42 95.9355 2671.73 94.4813 2674.98 94.8164C2677.98 95.1262 2681.04 94.8796 2684.07 94.886H2684.08Z"/><path d="M544.038 69.861C544.038 49.0095 544.088 28.1581 543.975 7.30669C543.963 4.68287 544.628 3.99373 547.244 4.00005C575.783 4.10121 604.321 4.09489 632.866 4.00005C635.433 3.99373 636.286 4.56907 636.167 7.25611C635.941 12.4089 635.966 17.5807 636.167 22.7335C636.261 25.1866 635.445 25.6671 633.161 25.6607C613.822 25.5722 594.482 25.6607 575.143 25.5469C572.583 25.5343 571.817 26.0907 571.861 28.7777C572.037 39.0959 572.018 49.4205 571.867 59.7387C571.83 62.2867 572.351 63.0833 575.055 63.0643C592.932 62.9252 610.81 63.0643 628.687 62.9252C631.461 62.9063 632.283 63.5765 632.132 66.3963C631.881 71.2266 631.906 76.0886 632.119 80.9252C632.245 83.7008 631.599 84.6492 628.599 84.6239C610.829 84.4658 593.058 84.6175 575.287 84.4721C572.514 84.4532 571.836 85.136 571.861 87.9242C572.012 102.668 571.867 117.412 571.993 132.15C572.012 134.767 571.604 135.791 568.661 135.678C561.771 135.412 554.862 135.621 547.966 135.583C543.586 135.564 544.057 136.228 544.051 131.473C544.032 110.938 544.044 90.4026 544.044 69.8673L544.038 69.861Z"/><path d="M1673.04 69.861C1673.04 49.0095 1673.09 28.1581 1672.98 7.30669C1672.96 4.68287 1673.63 3.99373 1676.24 4.00005C1704.78 4.10121 1733.32 4.09489 1761.87 4.00005C1764.43 3.99373 1765.29 4.56907 1765.17 7.25611C1764.94 12.4089 1764.97 17.5807 1765.17 22.7335C1765.26 25.1866 1764.45 25.6671 1762.16 25.6607C1742.82 25.5722 1723.48 25.6607 1704.14 25.5469C1701.58 25.5343 1700.82 26.0907 1700.86 28.7777C1701.04 39.0959 1701.02 49.4205 1700.87 59.7387C1700.83 62.2867 1701.35 63.0833 1704.06 63.0643C1721.93 62.9252 1739.81 63.0643 1757.69 62.9252C1760.46 62.9063 1761.28 63.5765 1761.13 66.3963C1760.88 71.2266 1760.91 76.0886 1761.12 80.9252C1761.24 83.7008 1760.6 84.6492 1757.6 84.6239C1739.83 84.4658 1722.06 84.6175 1704.29 84.4721C1701.51 84.4532 1700.84 85.136 1700.86 87.9242C1701.01 102.668 1700.87 117.412 1700.99 132.15C1701.01 134.767 1700.6 135.791 1697.66 135.678C1690.77 135.412 1683.86 135.621 1676.97 135.583C1672.59 135.564 1673.06 136.228 1673.05 131.473C1673.03 110.938 1673.04 90.4026 1673.04 69.8673L1673.04 69.861Z"/><path d="M2802.04 69.861C2802.04 49.0095 2802.09 28.1581 2801.98 7.30669C2801.96 4.68287 2802.63 3.99373 2805.24 4.00005C2833.78 4.10121 2862.32 4.09489 2890.87 4.00005C2893.43 3.99373 2894.29 4.56907 2894.17 7.25611C2893.94 12.4089 2893.97 17.5807 2894.17 22.7335C2894.26 25.1866 2893.45 25.6671 2891.16 25.6607C2871.82 25.5722 2852.48 25.6607 2833.14 25.5469C2830.58 25.5343 2829.82 26.0907 2829.86 28.7777C2830.04 39.0959 2830.02 49.4205 2829.87 59.7387C2829.83 62.2867 2830.35 63.0833 2833.06 63.0643C2850.93 62.9252 2868.81 63.0643 2886.69 62.9252C2889.46 62.9063 2890.28 63.5765 2890.13 66.3963C2889.88 71.2266 2889.91 76.0886 2890.12 80.9252C2890.24 83.7008 2889.6 84.6492 2886.6 84.6239C2868.83 84.4658 2851.06 84.6175 2833.29 84.4721C2830.51 84.4532 2829.84 85.136 2829.86 87.9242C2830.01 102.668 2829.87 117.412 2829.99 132.15C2830.01 134.767 2829.6 135.791 2826.66 135.678C2819.77 135.412 2812.86 135.621 2805.97 135.583C2801.59 135.564 2802.06 136.228 2802.05 131.473C2802.03 110.938 2802.04 90.4026 2802.04 69.8673L2802.04 69.861Z"/><path d="M688.343 28.2582C692.334 21.2277 696.745 14.9432 703.133 10.2709C712.74 3.25297 723.526 1.05276 735.185 2.35518C737.174 2.57647 737.814 3.34148 737.783 5.33938C737.676 12.2877 737.689 19.2361 737.777 26.1908C737.802 28.0117 737.319 28.4669 735.474 28.233C728.684 27.3794 721.889 27.6513 715.231 29.2698C701.213 32.6776 692.817 42.1739 690.514 56.9052C689.924 60.6608 689.704 64.4353 689.704 68.2287C689.704 90.2372 689.66 112.246 689.761 134.254C689.773 136.884 689.359 137.921 686.404 137.807C679.407 137.548 672.398 137.668 665.395 137.763C663.475 137.788 662.666 137.422 662.672 135.215C662.735 92.5701 662.728 49.9253 662.684 7.27404C662.684 5.28247 663.124 4.49849 665.27 4.54275C672.059 4.67552 678.861 4.68816 685.651 4.54275C687.985 4.49217 688.412 5.39628 688.38 7.47636C688.274 14.4058 688.343 21.3352 688.343 28.2646V28.2582Z"/><path d="M1817.34 28.2582C1821.33 21.2277 1825.74 14.9432 1832.13 10.2709C1841.74 3.25297 1852.53 1.05276 1864.19 2.35518C1866.17 2.57647 1866.81 3.34148 1866.78 5.33938C1866.68 12.2877 1866.69 19.2361 1866.78 26.1908C1866.8 28.0117 1866.32 28.4669 1864.47 28.233C1857.68 27.3794 1850.89 27.6513 1844.23 29.2698C1830.21 32.6776 1821.82 42.1739 1819.51 56.9052C1818.92 60.6608 1818.7 64.4353 1818.7 68.2287C1818.7 90.2372 1818.66 112.246 1818.76 134.254C1818.77 136.884 1818.36 137.921 1815.4 137.807C1808.41 137.548 1801.4 137.668 1794.4 137.763C1792.48 137.788 1791.67 137.422 1791.67 135.215C1791.73 92.5701 1791.73 49.9253 1791.68 7.27404C1791.68 5.28247 1792.12 4.49849 1794.27 4.54275C1801.06 4.67552 1807.86 4.68816 1814.65 4.54275C1816.99 4.49217 1817.41 5.39628 1817.38 7.47636C1817.27 14.4058 1817.34 21.3352 1817.34 28.2646V28.2582Z"/><path d="M2946.34 28.2582C2950.33 21.2277 2954.74 14.9432 2961.13 10.2709C2970.74 3.25297 2981.53 1.05276 2993.19 2.35518C2995.17 2.57647 2995.81 3.34148 2995.78 5.33938C2995.68 12.2877 2995.69 19.2361 2995.78 26.1908C2995.8 28.0117 2995.32 28.4669 2993.47 28.233C2986.68 27.3794 2979.89 27.6513 2973.23 29.2698C2959.21 32.6776 2950.82 42.1739 2948.51 56.9052C2947.92 60.6608 2947.7 64.4353 2947.7 68.2287C2947.7 90.2372 2947.66 112.246 2947.76 134.254C2947.77 136.884 2947.36 137.921 2944.4 137.807C2937.41 137.548 2930.4 137.668 2923.4 137.763C2921.48 137.788 2920.67 137.422 2920.67 135.215C2920.73 92.5701 2920.73 49.9253 2920.68 7.27404C2920.68 5.28247 2921.12 4.49849 2923.27 4.54275C2930.06 4.67552 2936.86 4.68816 2943.65 4.54275C2945.99 4.49217 2946.41 5.39628 2946.38 7.47636C2946.27 14.4058 2946.34 21.3352 2946.34 28.2646V28.2582Z"/><path d="M0.0566909 69.5872C0.0566909 48.8433 0.100616 28.1056 0.000216384 7.3617C-0.0123335 4.80743 0.514762 3.92861 3.21926 4.00448C10.5296 4.2068 17.8524 4.14989 25.169 4.02344C27.2649 3.98551 28.0053 4.42808 27.999 6.73577C27.9237 48.7421 27.9237 90.7547 28.0053 132.761C28.0053 135.239 27.2523 135.682 25.0059 135.644C17.6893 135.505 10.3727 135.467 3.05612 135.657C0.458287 135.726 -0.00605856 134.803 0.00649133 132.445C0.0880656 111.492 0.050416 90.5398 0.050416 69.5872H0.0566909Z"/><path d="M1129.06 69.5872C1129.06 48.8433 1129.1 28.1056 1129 7.3617C1128.99 4.80743 1129.51 3.92861 1132.22 4.00448C1139.53 4.2068 1146.85 4.14989 1154.17 4.02344C1156.26 3.98551 1157.01 4.42808 1157 6.73577C1156.92 48.7421 1156.92 90.7547 1157.01 132.761C1157.01 135.239 1156.25 135.682 1154.01 135.644C1146.69 135.505 1139.37 135.467 1132.06 135.657C1129.46 135.726 1128.99 134.803 1129.01 132.445C1129.09 111.492 1129.05 90.5398 1129.05 69.5872H1129.06Z"/><path d="M2258.06 69.5872C2258.06 48.8433 2258.1 28.1056 2258 7.3617C2257.99 4.80743 2258.51 3.92861 2261.22 4.00448C2268.53 4.2068 2275.85 4.14989 2283.17 4.02344C2285.26 3.98551 2286.01 4.42808 2286 6.73577C2285.92 48.7421 2285.92 90.7547 2286.01 132.761C2286.01 135.239 2285.25 135.682 2283.01 135.644C2275.69 135.505 2268.37 135.467 2261.06 135.657C2258.46 135.726 2257.99 134.803 2258.01 132.445C2258.09 111.492 2258.05 90.5398 2258.05 69.5872H2258.06Z"/><path d="M395.717 69.7234C395.717 90.6697 395.667 111.61 395.78 132.556C395.792 135.104 395.045 135.685 392.642 135.635C385.225 135.477 377.808 135.521 370.391 135.616C368.54 135.641 367.862 135.237 367.869 133.207C367.925 90.8973 367.925 48.5938 367.875 6.28402C367.875 4.43155 368.49 4.00794 370.209 4.02691C377.833 4.1091 385.464 4.15968 393.088 4.00162C395.416 3.95736 395.767 4.81722 395.761 6.89098C395.692 27.8372 395.717 48.7772 395.717 69.7234Z"/><path d="M1524.72 69.7234C1524.72 90.6697 1524.67 111.61 1524.78 132.556C1524.79 135.104 1524.05 135.685 1521.64 135.635C1514.23 135.477 1506.81 135.521 1499.39 135.616C1497.54 135.641 1496.86 135.237 1496.87 133.207C1496.93 90.8973 1496.93 48.5938 1496.87 6.28402C1496.87 4.43155 1497.49 4.00794 1499.21 4.02691C1506.83 4.1091 1514.46 4.15968 1522.09 4.00162C1524.42 3.95736 1524.77 4.81722 1524.76 6.89098C1524.69 27.8372 1524.72 48.7772 1524.72 69.7234Z"/><path d="M2653.72 69.7234C2653.72 90.6697 2653.67 111.61 2653.78 132.556C2653.79 135.104 2653.05 135.685 2650.64 135.635C2643.23 135.477 2635.81 135.521 2628.39 135.616C2626.54 135.641 2625.86 135.237 2625.87 133.207C2625.93 90.8973 2625.93 48.5938 2625.87 6.28402C2625.87 4.43155 2626.49 4.00794 2628.21 4.02691C2635.83 4.1091 2643.46 4.15968 2651.09 4.00162C2653.42 3.95736 2653.77 4.81722 2653.76 6.89098C2653.69 27.8372 2653.72 48.7772 2653.72 69.7234Z"/><circle cx="1082.5" cy="70.5" r="16.5"/><circle cx="2211.5" cy="70.5" r="16.5"/><circle cx="3340.5" cy="70.5" r="16.5"/>
</svg>
