<svg fill="#fff" viewBox="0 0 1099 140" xmlns="http://www.w3.org/2000/svg">
<path d="M834.399 78.3159C818.504 78.3159 802.61 78.3602 786.722 78.2717C784.281 78.259 783.465 78.7332 783.885 81.4202C786.32 97.0114 792.727 109.852 808.32 115.644C819.834 119.918 831.506 119.488 842.769 114.215C848.448 111.553 852.671 107.222 855.495 101.62C856.373 99.8818 857.352 99.199 859.31 99.2369C865.893 99.3633 872.488 99.4329 879.07 99.2179C882.157 99.1168 881.906 100.23 881.003 102.398C873.617 120.139 860.816 131.873 842.418 136.938C826.091 141.427 809.832 140.51 794.27 133.688C777.039 126.139 765.569 112.868 759.783 94.9882C753.966 77.0072 754.148 58.7669 761.057 41.1589C769.704 19.1062 786.439 6.46767 809.431 2.33911C823.813 -0.240446 838.025 0.695275 851.441 7.00507C871.684 16.5204 881.931 33.3001 885.019 55.0683C885.954 61.6689 885.734 68.3012 885.495 74.9334C885.408 77.4055 884.629 78.4424 881.774 78.4108C865.987 78.2211 850.199 78.3223 834.411 78.3223L834.399 78.3159ZM821.397 58.0146C832.999 58.0146 844.602 57.9766 856.204 58.0525C858.149 58.0651 858.996 57.749 858.683 55.4729C855.476 31.9787 839.933 19.1821 815.812 22.9566C798.857 25.6057 787.776 37.6879 784.45 55.4287C784.03 57.6605 784.488 58.0715 786.583 58.0525C798.186 57.9703 809.788 58.0146 821.391 58.0146H821.397Z"/>
<path d="M984.326 78.3198C968.438 78.3198 952.543 78.3198 936.655 78.3198C935.287 78.3198 933.587 77.7887 933.969 80.362C935.802 92.8298 940.043 103.964 950.711 111.614C962.759 120.257 984.081 120.592 996.204 112.385C1000.57 109.433 1003.87 105.576 1006.19 100.878C1006.85 99.538 1007.64 99.127 1009.06 99.146C1015.95 99.2092 1022.85 99.2661 1029.75 99.127C1032.34 99.0764 1032.16 99.9932 1031.4 101.871C1023.91 120.415 1010.61 132.547 991.354 137.213C970.653 142.227 950.805 139.78 933.091 127.015C917.799 115.995 909.579 100.518 907.043 81.9868C905.036 67.2619 906.071 52.7202 912.151 38.9816C921.162 18.6107 937.013 6.58537 958.555 2.539C976.67 -0.862471 994.152 1.03426 1009.95 11.6623C1024.6 21.5253 1032.1 35.8267 1034.95 52.9415C1036.2 60.4526 1036.2 68.0142 1035.65 75.6075C1035.5 77.8014 1034.74 78.3831 1032.62 78.3704C1016.52 78.2882 1000.43 78.3261 984.326 78.3261V78.3198ZM972.096 58.0501C983.592 58.0501 995.087 58.0754 1006.58 58.0058C1007.52 58.0058 1009.4 58.9605 1009.07 56.52C1007.67 46.3915 1004.73 36.9457 996.581 30.1428C986.171 21.4558 974.141 20.7224 961.636 23.8393C947.297 27.4178 937.358 40.0627 934.553 56.166C934.189 58.2461 935.369 58.0627 936.661 58.0564C948.471 58.0437 960.28 58.0501 972.083 58.0564L972.096 58.0501Z"/>
<path d="M82.0825 29.4792C85.4961 24.2695 88.552 19.9639 92.4927 16.3854C105.068 4.97338 120.015 1.00921 136.555 2.20415C146.464 2.91859 155.587 5.80795 163.218 12.5856C171.488 19.9323 175.774 29.2895 176.608 40.202C177.079 46.3854 176.972 52.6193 176.979 58.828C177.016 84.0039 176.941 109.174 177.06 134.35C177.073 137.188 176.295 137.871 173.571 137.783C166.989 137.574 160.394 137.58 153.811 137.783C151.044 137.865 150.166 137.22 150.178 134.236C150.304 106.853 150.241 79.4644 150.272 52.0756C150.272 49.1104 150.028 46.1704 149.4 43.2937C147.022 32.3749 140.477 26.5329 127.959 25.0219C106.247 22.3917 89.2611 35.1947 84.8122 53.6246C83.7203 58.1578 83.3689 62.7732 83.3626 67.4012C83.325 89.5234 83.2622 111.639 83.4379 133.762C83.463 137.201 82.4088 137.896 79.2776 137.783C72.8019 137.549 66.3073 137.549 59.8316 137.783C56.9765 137.89 56.4117 136.98 56.418 134.267C56.5059 92.2421 56.4745 50.2105 56.4745 8.18519C56.4745 7.76158 56.5121 7.33798 56.4682 6.9207C56.2737 5.18202 56.92 4.51184 58.7523 4.53713C65.7551 4.62565 72.7643 4.65094 79.7671 4.52449C81.8818 4.48656 82.139 5.39699 82.1202 7.16727C82.0449 14.28 82.0888 21.3928 82.0888 29.4665L82.0825 29.4792Z"/>
<path d="M242.702 29.6775C246.21 24.2213 249.46 19.8019 253.583 16.0969C270.714 0.708097 299.905 -2.65544 318.547 8.85773C330.275 16.1032 336.18 27.0727 337.259 40.6912C338.088 51.0917 337.554 61.5363 337.586 71.962C337.648 92.7123 337.529 113.463 337.686 134.213C337.711 137.355 336.801 138.051 333.846 137.949C327.263 137.715 320.668 137.747 314.086 137.943C311.507 138.019 310.792 137.361 310.798 134.693C310.905 107.203 310.854 79.7134 310.879 52.2171C310.879 49.2518 310.628 46.3119 310.001 43.4352C307.616 32.5163 301.072 26.687 288.541 25.1823C266.861 22.5711 249.868 35.3361 245.407 53.8103C244.315 58.3435 243.97 62.9589 243.963 67.5932C243.932 89.9241 243.907 112.255 244.007 134.586C244.02 137.127 243.499 138.032 240.795 137.949C233.792 137.747 226.783 137.823 219.78 137.918C217.847 137.943 217.031 137.557 217.038 135.37C217.094 92.7123 217.094 50.0548 217.044 7.39092C217.044 5.35509 217.577 4.6533 219.692 4.69756C226.488 4.83033 233.283 4.81769 240.079 4.70388C242.119 4.67227 242.777 5.25393 242.74 7.36563C242.614 14.4721 242.69 21.5848 242.69 29.6839L242.702 29.6775Z"/>
<path d="M426.082 94.886C429.533 94.886 432.984 94.9302 436.429 94.867C437.646 94.8417 438.387 95.1515 438.663 96.4476C441.813 111.141 452.217 116.856 465.796 118.26C472.981 119 480.216 118.918 487.212 116.578C496.926 113.329 501.613 105.438 499.178 96.4286C497.98 91.984 495.087 88.9429 491.128 86.8501C483.711 82.9302 475.453 81.887 467.465 79.9524C458.128 77.6889 448.784 75.5835 440.125 71.1325C425.843 63.7985 418.52 52.3422 419.524 36.024C420.484 20.3696 429.181 10.1336 443.218 4.93022C461.522 -1.85377 480.178 -1.7779 498.231 6.03665C511.722 11.8723 519.867 22.4497 522.258 37.2695C522.609 39.4508 522.182 40.1968 519.823 40.1399C513.241 39.9755 506.652 40.0767 500.063 40.0893C498.802 40.0893 497.685 40.2537 497.265 38.4455C495.075 28.9492 488.486 23.9418 479.569 21.7542C470.872 19.6236 462.119 19.6805 453.704 23.0756C444.68 26.7174 441.33 36.1568 446.055 43.965C448.1 47.3475 451.338 49.3075 454.846 50.7806C464.34 54.7701 474.48 56.4392 484.363 59.0187C493.004 61.2695 501.356 64.0767 508.723 69.3433C523.168 79.6742 528.658 98.4392 521.793 114.751C517.514 124.93 509.381 131.145 499.298 134.382C478.59 141.027 457.877 140.958 437.947 131.531C424.237 125.05 416.487 113.594 413.877 98.5783C413.419 95.9355 413.732 94.4813 416.983 94.8164C419.982 95.1262 423.038 94.8796 426.069 94.886H426.082Z"/>
<path d="M544.038 69.861C544.038 49.0095 544.088 28.1581 543.975 7.30669C543.963 4.68287 544.628 3.99373 547.244 4.00005C575.783 4.10121 604.321 4.09489 632.866 4.00005C635.433 3.99373 636.286 4.56907 636.167 7.25611C635.941 12.4089 635.966 17.5807 636.167 22.7335C636.261 25.1866 635.445 25.6671 633.161 25.6607C613.822 25.5722 594.482 25.6607 575.143 25.5469C572.583 25.5343 571.817 26.0907 571.861 28.7777C572.037 39.0959 572.018 49.4205 571.867 59.7387C571.83 62.2867 572.351 63.0833 575.055 63.0643C592.932 62.9252 610.81 63.0643 628.687 62.9252C631.461 62.9063 632.283 63.5765 632.132 66.3963C631.881 71.2266 631.906 76.0886 632.119 80.9252C632.245 83.7008 631.599 84.6492 628.599 84.6239C610.829 84.4658 593.058 84.6175 575.287 84.4721C572.514 84.4532 571.836 85.136 571.861 87.9242C572.012 102.668 571.867 117.412 571.993 132.15C572.012 134.767 571.604 135.791 568.661 135.678C561.771 135.412 554.862 135.621 547.966 135.583C543.586 135.564 544.057 136.228 544.051 131.473C544.032 110.938 544.044 90.4026 544.044 69.8673L544.038 69.861Z"/>
<path d="M688.343 28.2582C692.334 21.2277 696.745 14.9432 703.133 10.2709C712.74 3.25297 723.526 1.05276 735.185 2.35518C737.174 2.57647 737.814 3.34148 737.783 5.33938C737.676 12.2877 737.689 19.2361 737.777 26.1908C737.802 28.0117 737.319 28.4669 735.474 28.233C728.684 27.3794 721.889 27.6513 715.231 29.2698C701.213 32.6776 692.817 42.1739 690.514 56.9052C689.924 60.6608 689.704 64.4353 689.704 68.2287C689.704 90.2372 689.66 112.246 689.761 134.254C689.773 136.884 689.359 137.921 686.404 137.807C679.407 137.548 672.398 137.668 665.395 137.763C663.475 137.788 662.666 137.422 662.672 135.215C662.735 92.5701 662.728 49.9253 662.684 7.27404C662.684 5.28247 663.124 4.49849 665.27 4.54275C672.059 4.67552 678.861 4.68816 685.651 4.54275C687.985 4.49217 688.412 5.39628 688.38 7.47636C688.274 14.4058 688.343 21.3352 688.343 28.2646V28.2582Z"/>
<path d="M0.0566909 69.5872C0.0566909 48.8433 0.100616 28.1056 0.000216384 7.3617C-0.0123335 4.80743 0.514762 3.92861 3.21926 4.00448C10.5296 4.2068 17.8524 4.14989 25.169 4.02344C27.2649 3.98551 28.0053 4.42808 27.999 6.73577C27.9237 48.7421 27.9237 90.7547 28.0053 132.761C28.0053 135.239 27.2523 135.682 25.0059 135.644C17.6893 135.505 10.3727 135.467 3.05612 135.657C0.458287 135.726 -0.00605856 134.803 0.00649133 132.445C0.0880656 111.492 0.050416 90.5398 0.050416 69.5872H0.0566909Z"/>
<path d="M395.717 69.7234C395.717 90.6697 395.667 111.61 395.78 132.556C395.792 135.104 395.045 135.685 392.642 135.635C385.225 135.477 377.808 135.521 370.391 135.616C368.54 135.641 367.862 135.237 367.869 133.207C367.925 90.8973 367.925 48.5938 367.875 6.28402C367.875 4.43155 368.49 4.00794 370.209 4.02691C377.833 4.1091 385.464 4.15968 393.088 4.00162C395.416 3.95736 395.767 4.81722 395.761 6.89098C395.692 27.8372 395.717 48.7772 395.717 69.7234Z"/>
<circle cx="1082.5" cy="70.5" r="16.5"/>
</svg>
