<svg width="19" height="19" viewBox="0 0 19 19" xmlns="http://www.w3.org/2000/svg"><path fill-rule="evenodd" clip-rule="evenodd" d="M9.4375 7.93743C11.2152 7.93743 12.6562 6.49636 12.6562 4.71871C12.6562 2.94106 11.2152 1.49999 9.4375 1.49999C7.65983 1.49999 6.21875 2.94106 6.21875 4.71871C6.21875 6.49636 7.65983 7.93743 9.4375 7.93743ZM9.4375 9.43742C12.0436 9.43742 14.1562 7.32478 14.1562 4.71871C14.1562 2.11264 12.0436 0 9.4375 0C6.83141 0 4.71875 2.11264 4.71875 4.71871C4.71875 7.32478 6.83141 9.43742 9.4375 9.43742ZM18.875 18.875V13.0348V11.5348H17.375H1.5H0V13.0348V18.875H1.5V13.0348H17.375V18.875H18.875Z"/></svg>
