<svg width="110" height="110" viewBox="0 0 110 110" fill="none" xmlns="http://www.w3.org/2000/svg">
<circle cx="55" cy="55" r="55" fill="#7075C2"/>
<path d="M52 80C52 81.6569 53.3431 83 55 83C56.6569 83 58 81.6569 58 80L52 80ZM57.1213 27.8787C55.9497 26.7071 54.0502 26.7071 52.8787 27.8787L33.7868 46.9706C32.6152 48.1421 32.6152 50.0416 33.7868 51.2132C34.9584 52.3848 36.8579 52.3848 38.0294 51.2132L55 34.2426L71.9706 51.2132C73.1421 52.3848 75.0416 52.3848 76.2132 51.2132C77.3848 50.0416 77.3848 48.1421 76.2132 46.9706L57.1213 27.8787ZM58 80L58 30L52 30L52 80L58 80Z" fill="white"/>
</svg>
